<svg version="1.2" xmlns="http://www.w3.org/2000/svg" viewBox="0 0 236 253" width="56" height="60">
	<title>logo-no-background-svg</title>
	<style>
		.s0 { fill: #37517e } 
		.s1 { fill: #91abbb } 
	</style>
	<g>
		<g>
			<g id="tight-bounds">
				<g>
					<g>
						<g>
							<g>
								<g>
									<g>
										<g>
											<g id="textblocktransform">
												<g id="textblock">
													<g>
														<g>
															<g>
																<g>
																	<path id="text-0" fill-rule="evenodd" class="s0" d="m388.7 81.1l8.9 1.9q6.9 0 6.9-9.9 0-9.9-12.7-21.2-12.7-11.2-32.1-11.2-24.4 0-38.2 15.2-13.9 15.2-13.9 41.2 0 26.1 15.4 45 15.3 18.9 39.2 18.9 23.9 0 42.7-22.5 4-5.1 6.2-5.1 2.1 0 3.3 1.3 1.1 1.4 1.1 4.2 0 2.8-4.3 8.8-4.4 6.1-11.7 12.3-7.4 6.3-19.2 10.9-11.9 4.6-24.7 4.6-28.2 0-46.8-20-18.7-20-18.7-51.6 0-31.6 21.5-54.6 21.4-23.1 53.4-23.1 22.4 0 36.8 11.6 14.4 11.6 14.4 29.2 0 14.1-8.6 23.3-8.7 9.3-18.3 9.3-5.1 0-7.5-2.8-2.5-2.8-2.5-6.4 0-3.6 2.9-6.5 2.8-2.8 6.5-2.8zm73.3 94.4q-13.6 0-22.8-10.7-9.2-10.6-9.2-26.6 0-16.1 10.1-31.1 10-15 23.4-22.4 13.5-7.5 27.1-7.5 13.7 0 22.8 10.7 9.2 10.6 9.2 26.6 0 16.1-10 31.1-10 15-23.5 22.4-13.4 7.5-27.1 7.5zm-8.4-72.1q-9.5 9.3-9.5 23 0 13.6 9.5 23 9.5 9.5 23 9.5 13.6 0 22.8-9.5 9.1-9.4 9.1-23 0-13.7-9.1-23-9.2-9.4-22.8-9.4-13.5 0-23 9.4zm87.1 61.9l1.5-42.1-1.5-35.5q0-4.5 2.9-7.5 2.9-3 7-3 4 0 6.6 2.9 2.5 2.9 2.5 7.1 0 4.3-0.2 6.4 12.4-16.4 26.3-16.4 16.2 0 23.2 19.4 13.7-19.4 29.4-19.4 20.3 0 26.3 30l7.4 36.6q1.1 5.1 5.2 10.7 4 5.7 4 10.6 0 5.1-3.1 7.7-3.1 2.7-7.3 2.7-9.8 0-12.8-16.8l-7.9-44.5q-1.5-9.3-6.2-15.3-4.7-5.9-12.2-5.9-10 0-19.2 17.2l6.9 33.6q1 5.1 5.1 10.7 4 5.7 4 10.6 0 5.1-3.1 7.7-3.1 2.7-7.3 2.7-9.8 0-12.8-16.8l-7.9-44.5q-1.5-8.7-7.3-15-5.7-6.2-13.7-6.2-8 0-12.8 6.1-4.8 6.2-5.2 12.2-0.3 6.1-0.3 11.9l1.5 42.1q0 4.4-2.5 7.3-2.6 2.9-6.6 2.9-4.1 0-7-2.9-2.9-2.9-2.9-7.3zm173.2 70.6q-4 0-7.1-3.1-3.1-3.1-3.1-8.9 0-1 2-14 2-13 2-43.4 0-30.4-1-55.7-0.3-4.9-3.8-11.2-3.5-6.4-3.5-11.3 0-4.9 3.2-8 3.2-3.1 7.3-3.1 10.6 0 10.6 16.8v10q9-12.3 21.7-19.5 12.7-7.3 23.5-7.3 14.3 0 23.1 10.5 8.7 10.6 8.7 24.6 0 14.1-5.5 26.2-5.6 12.1-14.1 20-8.5 7.8-18.1 12.4-9.6 4.6-18.4 4.6-10.2 0-10.2-10 0-4.5 3.2-6.6 3.2-2.1 6.4-2.1 3.2 0 6.7 1 3.5 1.1 6.5 1.1 12.8 0 21.5-9.5 8.8-9.4 8.8-23 0-13.7-8.8-23-8.7-9.4-21.5-9.4-16.6 0-24.4 13.4-7.8 13.4-7.8 36.6 0 12.3 1.7 38.9 1.7 26.6 1.7 36.2 0 16.8-11.3 16.8zm103-77.2q0-82.7-1-98.9-2-29.3-2-34.2 0-4.9 2.9-7.9 2.9-3 7-3 4 0 6.6 3 2.5 3 2.5 7.4 0 13.4-1 36.4-2.2 54-2.2 80.4 0 6.4 4.2 12.2 4.1 5.8 4.1 10.5 0 4.7-3.2 7.8-3.2 3.1-7.2 3.1-10.7 0-10.7-16.8zm48 0q0-26.8-1-47-1.1-20.2-1.1-23.8 0-3.6 2.8-7.2 2.9-3.5 7-3.5 4.1 0 6.6 3.3 2.6 3.3 2.6 9.6 0 6.3-1.5 21-1.5 14.8-1.5 30.8 0 6.4 2.6 12.2 2.7 5.8 2.7 10.6 0 4.8-2.7 7.8-2.6 3-7.2 3-4.6 0-6.9-5.1-2.4-5.1-2.4-11.7zm6.8-105.5q-4.6 0-7.4-2.5-2.8-2.6-2.8-7.5 0-4.9 3.4-8.4 3.4-3.5 8.1-3.5 4.7 0 7.6 2.7 2.9 2.6 2.9 7.5 0 4.9-3.6 8.3-3.5 3.4-8.2 3.4zm41.2 157.9q2.1-8.4 4.2-24.6 2-16.1 2-37 0-20.8-1.9-57.2h-6.6q-8.4 0-8.4-7.2 0-7.2 8.4-7.2 4.2 0 6.4 0.2 0.8-26.6 20.1-45 19.3-18.4 38.7-18.4 7.7 0 12.7 2.8 5 2.8 5 7.9 0 5.3-2.9 8.1-2.8 2.9-5.6 2.9-2.8 0-9.6-2.4-6.8-2.5-13.4-2.5-13.3 0-22.6 11.6-9.4 11.6-9.4 27.8v8h6.8l29.4-1.7q8.4 0 8.4 7.9 0 7.9-8.4 7.9l-29.4-1.7q-4.7 0-6.8 0.2 0.4 23.4 2 52.5 1.6 29.1 1.6 57.4 0 34.5-13.4 34.5-9.4 0-9.4-12.2 0-4.2 2.1-12.6zm153.3-63.9l-0.4 29.8q0 20.8-18.3 39.8-18.4 19.1-41 19.1-11.3 0-19.6-6.4-8.3-6.4-8.3-13.8 0-3.9 2.7-6.9 2.6-2.9 6.4-2.9 3.7 0 6.8 2.1 3.1 2.1 5.7 4.7 2.7 2.5 8.1 4.7 5.5 2.1 12.3 2.1 13.4 0 23-9.9 9.6-9.9 9.6-23.5 0-18.7-0.2-26.6-9.8 16-24.5 16-12.2 0-19.3-8.7-7.2-8.8-9.9-21.3l-8.1-36.6q-1.3-6.1-5.7-11-4.4-4.7-4.4-9.6 0-4.9 3.4-8 3.5-3.1 7.5-3.1 4.1 0 6.6 1.5 2.6 1.5 4.3 4.5 2.3 4.5 3.6 10.8l9.4 44.5q2.3 10.4 6.3 15.8 3.9 5.4 12.3 5.4 8.3 0 13.3-6.3 5-6.2 5-15.6l-1.5-47.8q0-5.7 2.9-9.3 2.9-3.5 6.9-3.5 4.1 0 6.6 3.3 2.6 3.3 2.6 8.9 0 5.7-1.3 15.9-2.8 22.1-2.8 41.9zm28.2-7q0 0 1.7-38.9 0-34.7-1.7-54.3-1.7-19.5-1.7-20.1 0-12.2 9.4-12.2 11.3 0 11.3 17.5 0 10.4-2.2 35.5-2.3 25.1-2.5 33.4 8.9-11.1 21.4-17.5 12.5-6.4 25.2-6.4 12.7 0 22.2 10.3 9.5 10.4 9.5 25 0 23.6-18.2 43.3-18.1 19.7-41.1 19.7-14.3 0-23.8-10.4-9.5-10.3-9.5-24.9zm23.4-36.8q-9.5 9.3-9.5 23 0 13.6 9.5 23 9.4 9.5 23 9.5 13.5 0 22.7-9.5 9.2-9.4 9.2-23 0-13.7-9.2-23-9.2-9.4-22.7-9.4-13.6 0-23 9.4zm111.8 72.1q-13.6 0-22.8-10.7-9.2-10.6-9.2-26.6 0-16.1 10.1-31.1 10-15 23.4-22.4 13.5-7.5 27.1-7.5 13.7 0 22.8 10.7 9.2 10.6 9.2 26.6 0 16.1-10 31.1-10.1 15-23.5 22.4-13.4 7.5-27.1 7.5zm-8.4-72.1q-9.5 9.3-9.5 23 0 13.6 9.5 23 9.5 9.5 23 9.5 13.6 0 22.7-9.5 9.2-9.4 9.2-23 0-13.7-9.2-23-9.1-9.4-22.7-9.4-13.5 0-23 9.4zm111.7 72.1q-13.7 0-22.9-10.7-9.1-10.6-9.1-26.6 0-16.1 10-31.1 10-15 23.5-22.4 13.4-7.5 27-7.5 13.7 0 22.9 10.7 9.1 10.6 9.1 26.6 0 16.1-10 31.1-10 15-23.5 22.4-13.4 7.5-27 7.5zm-8.5-72.1q-9.5 9.3-9.5 23 0 13.6 9.5 23 9.5 9.5 23 9.5 13.6 0 22.8-9.5 9.2-9.4 9.2-23 0-13.7-9.2-23-9.2-9.4-22.8-9.4-13.5 0-23 9.4zm106.1-78.5l-1.9 68.5v13q8.9-13.2 22.8-21.2 13.9-8 24.3-8 19.7 0 19.7 11.3 0 4.7-2.9 7.5-2.9 2.9-5.8 2.9-2.9 0-9.5-2.5-6.6-2.6-13-2.6-17.3 0-26.7 14.3 21.2 20.2 41 35.1 16.4 12.3 19 15.9 2.5 3.6 2.5 7.4 0 3.9-2.5 6.4-2.6 2.6-6.7 2.6-4.2 0-9.4-4.6-5.2-4.6-19.8-18.5-14.5-13.9-32.4-28.2 1.3 26.8 1.3 41.1 0 4.4-2.6 7.3-2.5 2.9-6.6 2.9-4 0-6.9-2.9-2.9-2.9-2.9-9.5 0-6.6 1.1-31.3 1.1-24.8 1.1-38.4 0-13.6-1.1-36.6-1.1-22.9-1.1-29.5 0-6.6 2.9-9.6 2.9-3 6.9-3 4.1 0 6.6 2.9 2.6 2.9 2.6 7.3z"/>
																</g>
															</g>
														</g>
													</g>
												</g>
											</g>
										</g>
									</g>
									<g>
										<g>
											<g>
												<g id="icon-0">
													<path class="s1" d="m149.8 20.1l-4.6 13.2c28 9.7 50.6 32.3 60.3 60.2l13.3-4.6c-11.2-31.9-37-57.6-69-68.8z"/>
													<path fill-rule="evenodd" class="s1" d="m92 20.9c0-11.5 9.4-20.9 21-20.9 11.6 0 21 9.4 21 20.9 0 11.6-9.4 21-21 21-11.6 0-21-9.4-21-21zm14 0c0 3.9 3.1 7 7 7 3.8 0 7-3.1 7-7 0-3.8-3.2-6.9-7-6.9-3.9 0-7 3.1-7 6.9z"/>
													<path fill-rule="evenodd" class="s1" d="m113 188.4c-34.8 0-63-28.2-63-62.8 0-34.6 28.2-62.8 63-62.8 34.7 0 63 28.2 63 62.8 0 34.6-28.3 62.8-63 62.8zm49-62.8c0-26.9-22-48.9-49-48.9-27 0-49 22-49 48.9 0 26.9 22 48.8 49 48.8 27 0 49-21.9 49-48.8z"/>
													<path class="s1" d="m120 118.6v-27.9h-14v41.9h28v-14z"/>
													<path class="s1" d="m227.9 105.9l-9.9 9.8-9.9-9.8-9.9 9.8 9.9 9.9-9.9 9.9 9.9 9.8 9.9-9.8 9.9 9.8 9.9-9.8-9.9-9.9 9.9-9.9z"/>
													<path class="s1" d="m66.9 24.4q-0.5 0.5-0.9 1.1-0.4 0.5-0.6 1.2-0.3 0.6-0.4 1.3-0.2 0.6-0.2 1.3c0 1.8 0.8 3.7 2.1 4.9 1.3 1.4 3.1 2.1 4.9 2.1 1.9 0 3.7-0.7 5-2.1 1.3-1.2 2-3 2-4.9 0-1.8-0.7-3.6-2-4.9-2.6-2.6-7.3-2.6-9.9 0z"/>
													<path class="s1" d="m33.6 56.8c-3.1-2.3-7.5-1.7-9.8 1.3q-0.9 1.1-1.2 2.5-0.4 1.3-0.2 2.7 0.2 1.4 0.9 2.6 0.7 1.2 1.8 2c1.3 1 2.8 1.4 4.2 1.4 1.5 0 2.9-0.4 4.1-1.3 1.2-0.8 2.1-2 2.6-3.4 0.4-1.4 0.5-2.9 0-4.3-0.4-1.4-1.3-2.6-2.4-3.5z"/>
													<path class="s1" d="m44.1 213.6c1.2 1 2.8 1.5 4.3 1.5 1.4 0 2.8-0.5 4-1.3 1.2-0.9 2.1-2.1 2.6-3.4 0.5-1.4 0.5-2.9 0.1-4.3-0.4-1.4-1.3-2.6-2.4-3.5-1.5-1.1-3.3-1.6-5.2-1.4-1.8 0.2-3.5 1.2-4.6 2.6-1.1 1.5-1.7 3.3-1.4 5.1 0.2 1.9 1.1 3.5 2.6 4.7z"/>
													<path class="s1" d="m34.9 184.6q-0.9-1.1-2.1-1.8-1.2-0.7-2.6-0.9-1.3-0.2-2.7 0.1-1.3 0.4-2.4 1.3-1.1 0.8-1.8 2-0.7 1.2-0.9 2.6-0.2 1.3 0.1 2.7 0.4 1.3 1.2 2.4 0.5 0.7 1.1 1.2 0.7 0.5 1.4 0.9 0.7 0.3 1.5 0.5 0.8 0.2 1.6 0.2c1.5 0 3-0.5 4.2-1.4q1.1-0.9 1.8-2.1 0.7-1.2 0.9-2.5 0.2-1.4-0.1-2.8-0.4-1.3-1.2-2.4z"/>
													<path class="s1" d="m8 118.9c2.8 0.4 5.5-1 6.9-3.4 1.4-2.4 1.2-5.5-0.5-7.7-1.7-2.3-4.6-3.2-7.4-2.5-2.7 0.7-4.7 3-5.1 5.8q-0.2 1.4 0.2 2.7 0.4 1.4 1.2 2.5 0.9 1.1 2.1 1.8 1.2 0.7 2.6 0.8z"/>
													<path class="s1" d="m1.9 140q0.2 1.3 0.8 2.4 0.6 1.1 1.5 1.9 1 0.9 2.2 1.3 1.2 0.5 2.5 0.5 0.4 0 0.9-0.1c3.8-0.5 6.5-4 6-7.8q-0.2-1.4-0.9-2.6-0.7-1.2-1.8-2-1.1-0.9-2.4-1.2-1.4-0.4-2.7-0.2-1.4 0.2-2.6 0.8-1.2 0.7-2.1 1.8-0.8 1.1-1.2 2.5-0.4 1.3-0.2 2.7z"/>
													<path class="s1" d="m18.5 79.4c-3.6-1.5-7.7 0.2-9.1 3.8q-0.6 1.3-0.6 2.7 0 1.3 0.6 2.6 0.5 1.3 1.5 2.3 1 1 2.3 1.5 1.3 0.5 2.7 0.5 1.3 0 2.6-0.5 1.3-0.5 2.3-1.5 1-1 1.5-2.3 0.5-1.3 0.5-2.7 0-1.4-0.5-2.6-0.5-1.3-1.5-2.3-1-1-2.3-1.5z"/>
													<path class="s1" d="m15.8 172.3q1.4 0 2.7-0.5c1.7-0.8 3.1-2.1 3.8-3.8 0.7-1.7 0.7-3.6 0-5.4-0.7-1.7-2.1-3-3.8-3.8-1.7-0.7-3.6-0.7-5.4 0q-1.2 0.6-2.2 1.5-1 1-1.5 2.3-0.6 1.3-0.6 2.7 0 1.3 0.5 2.6 0.4 1 1.1 1.8 0.7 0.8 1.5 1.4 0.9 0.6 1.9 0.9 1 0.3 2 0.3z"/>
													<path class="s1" d="m42.9 47.4c1.4 1.7 3.4 2.7 5.5 2.7 1.5 0 3.1-0.5 4.3-1.5q1.1-0.9 1.8-2.1 0.7-1.2 0.9-2.6 0.1-1.3-0.2-2.7-0.4-1.3-1.2-2.4-0.9-1.1-2.1-1.8-1.2-0.7-2.6-0.8-1.4-0.2-2.7 0.2-1.4 0.3-2.5 1.2-1.1 0.8-1.8 2-0.6 1.3-0.8 2.6-0.2 1.4 0.2 2.8 0.4 1.3 1.2 2.4z"/>
													<path class="s1" d="m66.9 217q-0.5 0.5-0.9 1-0.4 0.6-0.6 1.2-0.3 0.7-0.4 1.3-0.2 0.7-0.2 1.4 0 1.4 0.6 2.7 0.5 1.3 1.5 2.2 1 1 2.3 1.5 1.2 0.6 2.6 0.6 1.4 0 2.7-0.6 1.3-0.5 2.3-1.5 0.9-1 1.5-2.2 0.5-1.3 0.5-2.7c0-1.8-0.7-3.7-2-4.9-2.6-2.6-7.3-2.6-9.9 0z"/>
													<path class="s1" d="m205.5 157.7c-9.7 27.9-32.3 50.4-60.3 60.2l4.6 13.1c32-11.1 57.8-36.8 69-68.7z"/>
													<path class="s1" d="m125.5 214.8l-16 16-9.1-9-9.9 9.9 19 18.9 25.9-25.9z"/>
												</g>
											</g>
										</g>
									</g>
								</g>
							</g>
						</g>
					</g>
				</g>
			</g>
		</g>
	</g>
</svg>